<mxfile host="app.diagrams.net" modified="2023-11-03T10:14:06.810Z" agent="Mozilla/5.0 (Windows NT 10.0; Win64; x64) AppleWebKit/537.36 (KHTML, like Gecko) Chrome/119.0.0.0 Safari/537.36" etag="EITPO1yg-T6An8EJRZo_" version="22.0.8" type="device">
  <diagram id="7gRPWZPRz1ZJN7leZvWc" name="Page-1">
    <mxGraphModel dx="1290" dy="542" grid="0" gridSize="10" guides="1" tooltips="1" connect="1" arrows="1" fold="1" page="1" pageScale="1" pageWidth="827" pageHeight="1169" background="#ffffff" math="0" shadow="0">
      <root>
        <mxCell id="0" />
        <mxCell id="1" parent="0" />
        <mxCell id="ae4Djh6FxXs-cO4YG_5c-1" value="Student" style="shape=umlActor;verticalLabelPosition=bottom;verticalAlign=top;html=1;outlineConnect=0;" parent="1" vertex="1">
          <mxGeometry x="103" y="92" width="30" height="60" as="geometry" />
        </mxCell>
        <mxCell id="ae4Djh6FxXs-cO4YG_5c-3" value="acad_admin" style="shape=umlActor;verticalLabelPosition=bottom;verticalAlign=top;html=1;outlineConnect=0;" parent="1" vertex="1">
          <mxGeometry x="101" y="392" width="30" height="60" as="geometry" />
        </mxCell>
        <mxCell id="ae4Djh6FxXs-cO4YG_5c-8" value="add_curriculum" style="ellipse;whiteSpace=wrap;html=1;" parent="1" vertex="1">
          <mxGeometry x="218" y="479" width="129" height="38" as="geometry" />
        </mxCell>
        <mxCell id="ae4Djh6FxXs-cO4YG_5c-9" value="update_course" style="ellipse;whiteSpace=wrap;html=1;" parent="1" vertex="1">
          <mxGeometry x="422.5" y="422" width="132" height="38" as="geometry" />
        </mxCell>
        <mxCell id="ae4Djh6FxXs-cO4YG_5c-10" value="update_time_table" style="ellipse;whiteSpace=wrap;html=1;" parent="1" vertex="1">
          <mxGeometry x="414" y="346" width="140.5" height="39" as="geometry" />
        </mxCell>
        <mxCell id="ae4Djh6FxXs-cO4YG_5c-11" value="update_academic_calendar" style="ellipse;whiteSpace=wrap;html=1;" parent="1" vertex="1">
          <mxGeometry x="400" y="270" width="161" height="43" as="geometry" />
        </mxCell>
        <mxCell id="ae4Djh6FxXs-cO4YG_5c-12" value="add_new_course" style="ellipse;whiteSpace=wrap;html=1;" parent="1" vertex="1">
          <mxGeometry x="219.5" y="421" width="126" height="39" as="geometry" />
        </mxCell>
        <mxCell id="ae4Djh6FxXs-cO4YG_5c-13" value="add_time_table" style="ellipse;whiteSpace=wrap;html=1;" parent="1" vertex="1">
          <mxGeometry x="202" y="365" width="140" height="38" as="geometry" />
        </mxCell>
        <mxCell id="ae4Djh6FxXs-cO4YG_5c-14" value="add_academic_calendar" style="ellipse;whiteSpace=wrap;html=1;" parent="1" vertex="1">
          <mxGeometry x="172" y="300" width="146" height="39" as="geometry" />
        </mxCell>
        <mxCell id="ae4Djh6FxXs-cO4YG_5c-15" value="browse_curriculum_catalog" style="ellipse;whiteSpace=wrap;html=1;" parent="1" vertex="1">
          <mxGeometry x="470" y="46" width="181" height="44" as="geometry" />
        </mxCell>
        <mxCell id="ae4Djh6FxXs-cO4YG_5c-16" value="view_time_table" style="ellipse;whiteSpace=wrap;html=1;" parent="1" vertex="1">
          <mxGeometry x="219.5" y="113" width="163" height="29" as="geometry" />
        </mxCell>
        <mxCell id="ae4Djh6FxXs-cO4YG_5c-17" value="browse_programme_catalog" style="ellipse;whiteSpace=wrap;html=1;" parent="1" vertex="1">
          <mxGeometry x="212" y="50" width="178" height="40" as="geometry" />
        </mxCell>
        <mxCell id="ae4Djh6FxXs-cO4YG_5c-18" value="view_academic_calendar" style="ellipse;whiteSpace=wrap;html=1;" parent="1" vertex="1">
          <mxGeometry x="229" y="173" width="151" height="44" as="geometry" />
        </mxCell>
        <mxCell id="ae4Djh6FxXs-cO4YG_5c-19" value="" style="endArrow=none;html=1;rounded=0;" parent="1" source="ae4Djh6FxXs-cO4YG_5c-14" target="ae4Djh6FxXs-cO4YG_5c-3" edge="1">
          <mxGeometry width="50" height="50" relative="1" as="geometry">
            <mxPoint x="294" y="306" as="sourcePoint" />
            <mxPoint x="344" y="256" as="targetPoint" />
          </mxGeometry>
        </mxCell>
        <mxCell id="ae4Djh6FxXs-cO4YG_5c-20" value="" style="endArrow=none;html=1;rounded=0;" parent="1" source="ae4Djh6FxXs-cO4YG_5c-1" target="ae4Djh6FxXs-cO4YG_5c-18" edge="1">
          <mxGeometry width="50" height="50" relative="1" as="geometry">
            <mxPoint x="294" y="306" as="sourcePoint" />
            <mxPoint x="344" y="256" as="targetPoint" />
          </mxGeometry>
        </mxCell>
        <mxCell id="ae4Djh6FxXs-cO4YG_5c-21" value="" style="endArrow=none;html=1;rounded=0;" parent="1" source="ae4Djh6FxXs-cO4YG_5c-1" target="ae4Djh6FxXs-cO4YG_5c-16" edge="1">
          <mxGeometry width="50" height="50" relative="1" as="geometry">
            <mxPoint x="294" y="306" as="sourcePoint" />
            <mxPoint x="344" y="256" as="targetPoint" />
          </mxGeometry>
        </mxCell>
        <mxCell id="ae4Djh6FxXs-cO4YG_5c-22" value="" style="endArrow=none;html=1;rounded=0;" parent="1" source="ae4Djh6FxXs-cO4YG_5c-1" target="ae4Djh6FxXs-cO4YG_5c-17" edge="1">
          <mxGeometry width="50" height="50" relative="1" as="geometry">
            <mxPoint x="294" y="306" as="sourcePoint" />
            <mxPoint x="344" y="256" as="targetPoint" />
          </mxGeometry>
        </mxCell>
        <mxCell id="ae4Djh6FxXs-cO4YG_5c-23" value="&amp;lt;&amp;lt;extend&amp;gt;&amp;gt;" style="html=1;verticalAlign=bottom;labelBackgroundColor=none;endArrow=open;endFill=0;dashed=1;rounded=0;" parent="1" source="ae4Djh6FxXs-cO4YG_5c-15" target="ae4Djh6FxXs-cO4YG_5c-17" edge="1">
          <mxGeometry width="160" relative="1" as="geometry">
            <mxPoint x="239" y="281" as="sourcePoint" />
            <mxPoint x="399" y="281" as="targetPoint" />
          </mxGeometry>
        </mxCell>
        <mxCell id="RRVqnM272PpU0fViSaJ1-2" value="&amp;lt;&amp;lt;extend&amp;gt;&amp;gt;" style="html=1;verticalAlign=bottom;labelBackgroundColor=none;endArrow=open;endFill=0;dashed=1;rounded=0;" parent="1" source="ae4Djh6FxXs-cO4YG_5c-11" target="ae4Djh6FxXs-cO4YG_5c-14" edge="1">
          <mxGeometry width="160" relative="1" as="geometry">
            <mxPoint x="241" y="281" as="sourcePoint" />
            <mxPoint x="401" y="281" as="targetPoint" />
          </mxGeometry>
        </mxCell>
        <mxCell id="RRVqnM272PpU0fViSaJ1-3" value="" style="endArrow=none;html=1;rounded=0;" parent="1" source="ae4Djh6FxXs-cO4YG_5c-3" target="ae4Djh6FxXs-cO4YG_5c-13" edge="1">
          <mxGeometry width="50" height="50" relative="1" as="geometry">
            <mxPoint x="296" y="306" as="sourcePoint" />
            <mxPoint x="346" y="256" as="targetPoint" />
          </mxGeometry>
        </mxCell>
        <mxCell id="RRVqnM272PpU0fViSaJ1-4" value="&amp;lt;&amp;lt;extend&amp;gt;&amp;gt;" style="html=1;verticalAlign=bottom;labelBackgroundColor=none;endArrow=open;endFill=0;dashed=1;rounded=0;" parent="1" source="ae4Djh6FxXs-cO4YG_5c-10" target="ae4Djh6FxXs-cO4YG_5c-13" edge="1">
          <mxGeometry width="160" relative="1" as="geometry">
            <mxPoint x="241" y="281" as="sourcePoint" />
            <mxPoint x="401" y="281" as="targetPoint" />
          </mxGeometry>
        </mxCell>
        <mxCell id="RRVqnM272PpU0fViSaJ1-5" value="" style="endArrow=none;html=1;rounded=0;" parent="1" source="ae4Djh6FxXs-cO4YG_5c-3" target="ae4Djh6FxXs-cO4YG_5c-12" edge="1">
          <mxGeometry width="50" height="50" relative="1" as="geometry">
            <mxPoint x="296" y="306" as="sourcePoint" />
            <mxPoint x="346" y="256" as="targetPoint" />
          </mxGeometry>
        </mxCell>
        <mxCell id="RRVqnM272PpU0fViSaJ1-6" value="&amp;lt;&amp;lt;extend&amp;gt;&amp;gt;" style="html=1;verticalAlign=bottom;labelBackgroundColor=none;endArrow=open;endFill=0;dashed=1;rounded=0;" parent="1" source="ae4Djh6FxXs-cO4YG_5c-9" target="ae4Djh6FxXs-cO4YG_5c-12" edge="1">
          <mxGeometry width="160" relative="1" as="geometry">
            <mxPoint x="241" y="281" as="sourcePoint" />
            <mxPoint x="401" y="281" as="targetPoint" />
          </mxGeometry>
        </mxCell>
        <mxCell id="RRVqnM272PpU0fViSaJ1-7" value="" style="endArrow=none;html=1;rounded=0;" parent="1" source="ae4Djh6FxXs-cO4YG_5c-8" target="ae4Djh6FxXs-cO4YG_5c-3" edge="1">
          <mxGeometry width="50" height="50" relative="1" as="geometry">
            <mxPoint x="296" y="306" as="sourcePoint" />
            <mxPoint x="346" y="256" as="targetPoint" />
          </mxGeometry>
        </mxCell>
        <mxCell id="RRVqnM272PpU0fViSaJ1-8" value="update_curriculum" style="ellipse;whiteSpace=wrap;html=1;" parent="1" vertex="1">
          <mxGeometry x="438" y="473" width="142.5" height="44" as="geometry" />
        </mxCell>
        <mxCell id="RRVqnM272PpU0fViSaJ1-9" value="&amp;lt;&amp;lt;extend&amp;gt;&amp;gt;" style="html=1;verticalAlign=bottom;labelBackgroundColor=none;endArrow=open;endFill=0;dashed=1;rounded=0;" parent="1" source="RRVqnM272PpU0fViSaJ1-8" target="ae4Djh6FxXs-cO4YG_5c-8" edge="1">
          <mxGeometry width="160" relative="1" as="geometry">
            <mxPoint x="241" y="281" as="sourcePoint" />
            <mxPoint x="401" y="281" as="targetPoint" />
          </mxGeometry>
        </mxCell>
        <mxCell id="9gxkOoabTZrSw-9MSIZz-1" value="add_programme" style="ellipse;whiteSpace=wrap;html=1;" parent="1" vertex="1">
          <mxGeometry x="196" y="545" width="138" height="28" as="geometry" />
        </mxCell>
        <mxCell id="9gxkOoabTZrSw-9MSIZz-2" value="" style="endArrow=none;html=1;rounded=0;" parent="1" source="9gxkOoabTZrSw-9MSIZz-1" target="ae4Djh6FxXs-cO4YG_5c-3" edge="1">
          <mxGeometry width="50" height="50" relative="1" as="geometry">
            <mxPoint x="387" y="403" as="sourcePoint" />
            <mxPoint x="437" y="353" as="targetPoint" />
          </mxGeometry>
        </mxCell>
      </root>
    </mxGraphModel>
  </diagram>
</mxfile>
